REM DIRINDEX 1\2,1\3,1\4,1\5
REM DIRNAME cjc004,folder01,folder02,folder03,folder04
TITLE ""
FILE "1Q_t_0443-0452.mp3" MP3
  TRACK 01 AUDIO
    TITLE "3:cjc004_2230"
    INDEX 01 00:00:00
  TRACK 02 AUDIO
    TITLE "0:"
    INDEX 01 00:00:72
  TRACK 03 AUDIO
    TITLE "4:cjc004_2231"
    INDEX 01 00:01:26
  TRACK 04 AUDIO
    TITLE "0:"
    INDEX 01 00:02:43
  TRACK 05 AUDIO
    TITLE "5:cjc004_2232"
    INDEX 01 00:02:69
  TRACK 06 AUDIO
    TITLE "0:"
    INDEX 01 00:10:39
  TRACK 07 AUDIO
    TITLE "3:cjc004_2233"
    INDEX 01 00:11:17
  TRACK 08 AUDIO
    TITLE "0:"
    INDEX 01 00:12:18
  TRACK 09 AUDIO
    TITLE "4:cjc004_2234"
    INDEX 01 00:12:46
  TRACK 10 AUDIO
    TITLE "0:"
    INDEX 01 00:13:59
  TRACK 11 AUDIO
    TITLE "5:cjc004_2235"
    INDEX 01 00:14:09
  TRACK 12 AUDIO
    TITLE "0:"
    INDEX 01 00:18:21
  TRACK 13 AUDIO
    TITLE "3:cjc004_2236"
    INDEX 01 00:18:74
  TRACK 14 AUDIO
    TITLE "0:"
    INDEX 01 00:20:12
  TRACK 15 AUDIO
    TITLE "4:cjc004_2237"
    INDEX 01 00:20:39
  TRACK 16 AUDIO
    TITLE "0:"
    INDEX 01 00:21:41
  TRACK 17 AUDIO
    TITLE "5:cjc004_2238"
    INDEX 01 00:21:66
  TRACK 18 AUDIO
    TITLE "0:"
    INDEX 01 00:27:24
  TRACK 19 AUDIO
    TITLE "3:cjc004_2239"
    INDEX 01 00:27:73
  TRACK 20 AUDIO
    TITLE "0:"
    INDEX 01 00:29:03
  TRACK 21 AUDIO
    TITLE "4:cjc004_2240"
    INDEX 01 00:29:31
  TRACK 22 AUDIO
    TITLE "0:"
    INDEX 01 00:31:51
  TRACK 23 AUDIO
    TITLE "5:cjc004_2241"
    INDEX 01 00:32:00
  TRACK 24 AUDIO
    TITLE "0:"
    INDEX 01 00:36:72
  TRACK 25 AUDIO
    TITLE "3:cjc004_2242"
    INDEX 01 00:37:40
  TRACK 26 AUDIO
    TITLE "0:"
    INDEX 01 00:38:59
  TRACK 27 AUDIO
    TITLE "4:cjc004_2243"
    INDEX 01 00:39:11
  TRACK 28 AUDIO
    TITLE "0:"
    INDEX 01 00:40:66
  TRACK 29 AUDIO
    TITLE "5:cjc004_2244"
    INDEX 01 00:41:20
  TRACK 30 AUDIO
    TITLE "0:"
    INDEX 01 00:46:43
  TRACK 31 AUDIO
    TITLE "3:cjc004_2245"
    INDEX 01 00:47:23
  TRACK 32 AUDIO
    TITLE "0:"
    INDEX 01 00:48:30
  TRACK 33 AUDIO
    TITLE "4:cjc004_2246"
    INDEX 01 00:48:59
  TRACK 34 AUDIO
    TITLE "0:"
    INDEX 01 00:50:23
  TRACK 35 AUDIO
    TITLE "5:cjc004_2247"
    INDEX 01 00:50:48
  TRACK 36 AUDIO
    TITLE "0:"
    INDEX 01 00:54:34
  TRACK 37 AUDIO
    TITLE "3:cjc004_2248"
    INDEX 01 00:55:14
  TRACK 38 AUDIO
    TITLE "0:"
    INDEX 01 00:56:31
  TRACK 39 AUDIO
    TITLE "4:cjc004_2249"
    INDEX 01 00:56:57
  TRACK 40 AUDIO
    TITLE "0:"
    INDEX 01 00:57:72
  TRACK 41 AUDIO
    TITLE "5:cjc004_2250"
    INDEX 01 00:58:18
  TRACK 42 AUDIO
    TITLE "0:"
    INDEX 01 01:03:49
  TRACK 43 AUDIO
    TITLE "3:cjc004_2251"
    INDEX 01 01:04:29
  TRACK 44 AUDIO
    TITLE "0:"
    INDEX 01 01:05:30
  TRACK 45 AUDIO
    TITLE "4:cjc004_2252"
    INDEX 01 01:05:56
  TRACK 46 AUDIO
    TITLE "0:"
    INDEX 01 01:07:14
  TRACK 47 AUDIO
    TITLE "5:cjc004_2253"
    INDEX 01 01:07:39
  TRACK 48 AUDIO
    TITLE "0:"
    INDEX 01 01:12:42
  TRACK 49 AUDIO
    TITLE "3:cjc004_2254"
    INDEX 01 01:13:18
  TRACK 50 AUDIO
    TITLE "0:"
    INDEX 01 01:14:31
  TRACK 51 AUDIO
    TITLE "4:cjc004_2255"
    INDEX 01 01:14:65
  TRACK 52 AUDIO
    TITLE "0:"
    INDEX 01 01:16:12
  TRACK 53 AUDIO
    TITLE "5:cjc004_2256"
    INDEX 01 01:16:40
  TRACK 54 AUDIO
    TITLE "0:"
    INDEX 01 01:21:70
  TRACK 55 AUDIO
    TITLE "3:cjc004_2257"
    INDEX 01 01:22:54
  TRACK 56 AUDIO
    TITLE "0:"
    INDEX 01 01:23:62
  TRACK 57 AUDIO
    TITLE "4:cjc004_2258"
    INDEX 01 01:24:12
  TRACK 58 AUDIO
    TITLE "0:"
    INDEX 01 01:25:47
  TRACK 59 AUDIO
    TITLE "5:cjc004_2259"
    INDEX 01 01:25:68
  TRACK 60 AUDIO
    TITLE "0:"
    INDEX 01 01:31:43
